<svg xmlns="http://www.w3.org/2000/svg" xmlns:xlink="http://www.w3.org/1999/xlink" viewBox="145 405 100 90"><title>DIP</title>
<style type="text/css">
path, polyline, polygon {stroke-linejoin:round;}
path, polyline, polygon, line {stroke-linecap:round;}
rect, circle, ellipse, polyline, line, polygon, path {shape-rendering:crispEdges;}
</style>
<g><g><g style="" display="none"><text x="195" y="505" font-family="Times New Roman" font-size="7pt" fill="#000080" text-anchor="start">sym</text></g><g style="" display="none"><text x="195" y="400" font-family="Times New Roman" font-size="7pt" fill="#000080" text-anchor="start">U1</text></g><rect locked="" x="155" y="405" rx="2" ry="2" width="80" height="90" stroke="#880000" stroke-width="1" fill="none" style=""/><ellipse cx="160" cy="410" rx="1.5" ry="1.5" locked="" stroke="#880000" stroke-width="1" fill="#880000" style=""/><g locked=""><path d="M 145 420 h 10" fill="none" stroke="#880000" stroke-width="1"/><text x="158.70000000000005" y="424" font-family="Verdana" font-size="7pt" fill="#0000FF" text-anchor="start">PIN1</text><text x="154.5" y="419" font-family="Verdana" font-size="7pt" fill="#0000FF" text-anchor="end">1</text><circle cx="152" cy="420" r="3" stroke="#880000" fill="none" stroke-width="1" display="none"/><path d="M 155 423 L 158 420 L 155 417" fill="none" stroke="#880000" stroke-width="1" display="none"/></g><g locked=""><path d="M 145 440 h 10" fill="none" stroke="#880000" stroke-width="1"/><text x="158.70000000000005" y="444" font-family="Verdana" font-size="7pt" fill="#0000FF" text-anchor="start">PIN2</text><text x="154.5" y="439" font-family="Verdana" font-size="7pt" fill="#0000FF" text-anchor="end">2</text><circle cx="152" cy="440" r="3" stroke="#880000" fill="none" stroke-width="1" display="none"/><path d="M 155 443 L 158 440 L 155 437" fill="none" stroke="#880000" stroke-width="1" display="none"/></g><g locked=""><path d="M 145 460 h 10" fill="none" stroke="#880000" stroke-width="1"/><text x="158.70000000000005" y="464" font-family="Verdana" font-size="7pt" fill="#0000FF" text-anchor="start">PIN3</text><text x="154.5" y="459" font-family="Verdana" font-size="7pt" fill="#0000FF" text-anchor="end">3</text><circle cx="152" cy="460" r="3" stroke="#880000" fill="none" stroke-width="1" display="none"/><path d="M 155 463 L 158 460 L 155 457" fill="none" stroke="#880000" stroke-width="1" display="none"/></g><g locked=""><path d="M 145 480 h 10" fill="none" stroke="#880000" stroke-width="1"/><text x="158.70000000000005" y="484" font-family="Verdana" font-size="7pt" fill="#0000FF" text-anchor="start">PIN4</text><text x="154.5" y="479" font-family="Verdana" font-size="7pt" fill="#0000FF" text-anchor="end">4</text><circle cx="152" cy="480" r="3" stroke="#880000" fill="none" stroke-width="1" display="none"/><path d="M 155 483 L 158 480 L 155 477" fill="none" stroke="#880000" stroke-width="1" display="none"/></g><g locked=""><path d="M 245 480 h -10" fill="none" stroke="#880000" stroke-width="1"/><text x="231.29999999999995" y="484" font-family="Verdana" font-size="7pt" fill="#0000FF" text-anchor="end">PIN5</text><text x="235.5" y="479" font-family="Verdana" font-size="7pt" fill="#0000FF" text-anchor="start">5</text><circle cx="238" cy="480" r="3" stroke="#880000" fill="none" stroke-width="1" display="none"/><path d="M 235 477 L 232 480 L 235 483" fill="none" stroke="#880000" stroke-width="1" display="none"/></g><g locked=""><path d="M 245 460 h -10" fill="none" stroke="#880000" stroke-width="1"/><text x="231.29999999999995" y="464" font-family="Verdana" font-size="7pt" fill="#0000FF" text-anchor="end">PIN6</text><text x="235.5" y="459" font-family="Verdana" font-size="7pt" fill="#0000FF" text-anchor="start">6</text><circle cx="238" cy="460" r="3" stroke="#880000" fill="none" stroke-width="1" display="none"/><path d="M 235 457 L 232 460 L 235 463" fill="none" stroke="#880000" stroke-width="1" display="none"/></g><g locked=""><path d="M 245 440 h -10" fill="none" stroke="#880000" stroke-width="1"/><text x="231.29999999999995" y="444" font-family="Verdana" font-size="7pt" fill="#0000FF" text-anchor="end">PIN7</text><text x="235.5" y="439" font-family="Verdana" font-size="7pt" fill="#0000FF" text-anchor="start">7</text><circle cx="238" cy="440" r="3" stroke="#880000" fill="none" stroke-width="1" display="none"/><path d="M 235 437 L 232 440 L 235 443" fill="none" stroke="#880000" stroke-width="1" display="none"/></g><g locked=""><path d="M 245 420 h -10" fill="none" stroke="#880000" stroke-width="1"/><text x="231.29999999999995" y="424" font-family="Verdana" font-size="7pt" fill="#0000FF" text-anchor="end">PIN8</text><text x="235.5" y="419" font-family="Verdana" font-size="7pt" fill="#0000FF" text-anchor="start">8</text><circle cx="238" cy="420" r="3" stroke="#880000" fill="none" stroke-width="1" display="none"/><path d="M 235 417 L 232 420 L 235 423" fill="none" stroke="#880000" stroke-width="1" display="none"/></g></g></g></svg>