<svg xmlns="http://www.w3.org/2000/svg" xmlns:xlink="http://www.w3.org/1999/xlink" width="290" height="240" viewBox="-42 -75 200 165"><title>track-length-tuning-45-angle</title><style type="text/css">
path, polyline, polygon {stroke-linejoin:round;}
path, polyline, polygon, line {stroke-linecap:round;}
rect, circle, ellipse, polyline, line, polygon, path {shape-rendering:auto;}
</style>
<g><polyline points="14 -5 14 80" stroke="#000000" locked="0" stroke-width="1" fill="none" stroke-linecap="round"/><polyline points="54 55 54 80" stroke="#000000" locked="0" stroke-width="1" fill="none" stroke-linecap="round"/><polyline points="49 -60 154 -60" stroke="#000000" locked="0" stroke-width="1" fill="none" stroke-linecap="round"/><polyline points="134 0 154 0" stroke="#000000" locked="0" stroke-width="1" fill="none" stroke-linecap="round"/><polyline points="144 -60 144 -45" stroke="#000000" locked="0" stroke-width="1" fill="none" stroke-linecap="round"/><polyline points="144 0 144 -15" stroke="#000000" locked="0" stroke-width="1" fill="none" stroke-linecap="round"/><polyline points="144 -60 142 -54" stroke="#000000" locked="0" stroke-width="1" fill="none" stroke-linecap="round"/><polyline points="144 -60 146 -54" stroke="#000000" locked="0" stroke-width="1" fill="none" stroke-linecap="round"/><polyline points="144 0 142 -6" stroke="#000000" locked="0" stroke-width="1" fill="none" stroke-linecap="round"/><polyline points="144 0 146 -6" stroke="#000000" locked="0" stroke-width="1" fill="none" stroke-linecap="round"/><polyline points="14 70 24 70" stroke="#000000" locked="0" stroke-width="1" fill="none" stroke-linecap="round"/><polyline points="44 70 54 70" stroke="#000000" locked="0" stroke-width="1" fill="none" stroke-linecap="round"/><polyline points="54 70 48 68" stroke="#000000" locked="0" stroke-width="1" fill="none" stroke-linecap="round"/><polyline points="54 70 48 72" stroke="#000000" locked="0" stroke-width="1" fill="none" stroke-linecap="round"/><polyline points="14 70 20 68" stroke="#000000" locked="0" stroke-width="1" fill="none" stroke-linecap="round"/><polyline points="14 70 20 72" stroke="#000000" locked="0" stroke-width="1" fill="none" stroke-linecap="round"/><g locked="0"><text x="139" y="-25" fill="#0000FF" font-family="Verdana" font-size="10pt" font-weight="bolder" font-style="" dominant-baseline="" text-anchor="start" type="comment">H</text></g><g locked="0"><text x="26" y="75.52" fill="#0000FF" font-family="Verdana" font-size="10pt" font-weight="bolder" font-style="undefined" dominant-baseline="" text-anchor="start" type="comment">W</text></g><polyline points="6 0 14 -8 14 -52 22 -60 46 -60 54 -52 54 52 62 60 86 60 94 52 94 8 102 0 134 0" stroke="#FF0000" locked="0" stroke-width="8" fill="none" stroke-linecap="round"/><polyline points="6 0 -36 0" stroke="#FF0000" locked="0" stroke-width="8" fill="none" stroke-linecap="round"/></g></svg>