<svg xmlns="http://www.w3.org/2000/svg" xmlns:xlink="http://www.w3.org/1999/xlink" width="290" height="240" viewBox="234 339 200 165"><title>track-length-tuning-90-angle</title><style type="text/css">
path, polyline, polygon {stroke-linejoin:round;}
path, polyline, polygon, line {stroke-linecap:round;}
rect, circle, ellipse, polyline, line, polygon, path {shape-rendering:auto;}
</style>
<g><polyline points="290 414 240 414" stroke="#FF0000" locked="0" stroke-width="8" fill="none" stroke-linecap="round"/><polyline points="290 414 290 494" stroke="#000000" locked="0" stroke-width="1" fill="none" stroke-linecap="round"/><polyline points="330 474 330 494" stroke="#000000" locked="0" stroke-width="1" fill="none" stroke-linecap="round"/><polyline points="330 354 430 354" stroke="#000000" locked="0" stroke-width="1" fill="none" stroke-linecap="round"/><polyline points="410 414 430 414" stroke="#000000" locked="0" stroke-width="1" fill="none" stroke-linecap="round"/><polyline points="420 354 420 369" stroke="#000000" locked="0" stroke-width="1" fill="none" stroke-linecap="round"/><polyline points="420 414 420 399" stroke="#000000" locked="0" stroke-width="1" fill="none" stroke-linecap="round"/><polyline points="420 354 418 360" stroke="#000000" locked="0" stroke-width="1" fill="none" stroke-linecap="round"/><polyline points="420 354 422 360" stroke="#000000" locked="0" stroke-width="1" fill="none" stroke-linecap="round"/><polyline points="420 414 418 408" stroke="#000000" locked="0" stroke-width="1" fill="none" stroke-linecap="round"/><polyline points="420 414 422 408" stroke="#000000" locked="0" stroke-width="1" fill="none" stroke-linecap="round"/><polyline points="290 484 300 484" stroke="#000000" locked="0" stroke-width="1" fill="none" stroke-linecap="round"/><polyline points="320 484 330 484" stroke="#000000" locked="0" stroke-width="1" fill="none" stroke-linecap="round"/><polyline points="330 484 324 482" stroke="#000000" locked="0" stroke-width="1" fill="none" stroke-linecap="round"/><polyline points="330 484 324 486" stroke="#000000" locked="0" stroke-width="1" fill="none" stroke-linecap="round"/><polyline points="290 484 296 482" stroke="#000000" locked="0" stroke-width="1" fill="none" stroke-linecap="round"/><polyline points="290 484 296 486" stroke="#000000" locked="0" stroke-width="1" fill="none" stroke-linecap="round"/><polyline points="290 414 290 354 330 354 330 474 370 474 370 414 410 414" stroke="#FF0000" locked="0" stroke-width="8" fill="none" stroke-linecap="round"/><g locked="0"><text x="415" y="389" fill="#0000FF" font-family="Verdana" font-size="10pt" font-weight="bolder" font-style="" dominant-baseline="" text-anchor="start" type="comment">H</text></g><g locked="0"><text x="302" y="489.52" fill="#0000FF" font-family="Verdana" font-size="10pt" font-weight="bolder" font-style="undefined" dominant-baseline="" text-anchor="start" type="comment">W</text></g></g></svg>