<svg xmlns="http://www.w3.org/2000/svg" xmlns:xlink="http://www.w3.org/1999/xlink" viewBox="425 295 110 110"><title>QFP</title>
<style type="text/css">
path, polyline, polygon {stroke-linejoin:round;}
path, polyline, polygon, line {stroke-linecap:round;}
rect, circle, ellipse, polyline, line, polygon, path {shape-rendering:crispEdges;}
</style>
<g><g puuid="" uuid=""><g display="none"><text x="423" y="289.9999885559082" font-family="Arial" font-size="7pt" fill="#000080" text-anchor="start">Symbol1</text></g><g display="none"><text x="423" y="280.77777767181396" font-family="Arial" font-size="7pt" fill="#000080" text-anchor="start">U2</text></g><rect locked="" x="435" y="305" rx="2" ry="2" width="90" height="90" stroke="#880000" stroke-width="1" fill="none"/><ellipse cx="440" cy="310" rx="1.5" ry="1.5" locked="" stroke="#880000" stroke-width="1" fill="#880000"/><g locked=""><path d="M 425 345 h 10" fill="none" stroke="#880000" stroke-width="1"/><text x="438.70000000000005" y="349" font-family="Verdana" font-size="7pt" fill="#0000FF" text-anchor="start">PIN1</text><text x="434.5" y="344" font-family="Verdana" font-size="7pt" fill="#0000FF" text-anchor="end">1</text><circle cx="432" cy="345" r="3" stroke="#880000" fill="none" stroke-width="1" display="none"/><path d="M 435 348 L 438 345 L 435 342" fill="none" stroke="#880000" stroke-width="1" display="none"/></g><g locked=""><path d="M 425 355 h 10" fill="none" stroke="#880000" stroke-width="1"/><text x="438.70000000000005" y="359" font-family="Verdana" font-size="7pt" fill="#0000FF" text-anchor="start">PIN2</text><text x="434.5" y="354" font-family="Verdana" font-size="7pt" fill="#0000FF" text-anchor="end">2</text><circle cx="432" cy="355" r="3" stroke="#880000" fill="none" stroke-width="1" display="none"/><path d="M 435 358 L 438 355 L 435 352" fill="none" stroke="#880000" stroke-width="1" display="none"/></g><g locked=""><path d="M 475 405 v -10" fill="none" stroke="#880000" stroke-width="1"/><text x="478" y="392" font-family="Verdana" font-size="7pt" fill="#0000FF" text-anchor="start" transform="rotate(270,478,392)">PIN3</text><text x="474" y="394.5" font-family="Verdana" font-size="7pt" fill="#0000FF" text-anchor="end" transform="rotate(270,474,394.5)">3</text><circle cx="475" cy="398" r="3" stroke="#880000" fill="none" stroke-width="1" display="none"/><path d="M 478 395 L 475 392 L 472 395" fill="none" stroke="#880000" stroke-width="1" display="none"/></g><g locked=""><path d="M 485 405 v -10" fill="none" stroke="#880000" stroke-width="1"/><text x="488" y="392" font-family="Verdana" font-size="7pt" fill="#0000FF" text-anchor="start" transform="rotate(270,488,392)">PIN4</text><text x="484" y="394.5" font-family="Verdana" font-size="7pt" fill="#0000FF" text-anchor="end" transform="rotate(270,484,394.5)">4</text><circle cx="485" cy="398" r="3" stroke="#880000" fill="none" stroke-width="1" display="none"/><path d="M 488 395 L 485 392 L 482 395" fill="none" stroke="#880000" stroke-width="1" display="none"/></g><g locked=""><path d="M 535 355 h -10" fill="none" stroke="#880000" stroke-width="1"/><text x="521.3" y="359" font-family="Verdana" font-size="7pt" fill="#0000FF" text-anchor="end">PIN5</text><text x="525.5" y="354" font-family="Verdana" font-size="7pt" fill="#0000FF" text-anchor="start">5</text><circle cx="528" cy="355" r="3" stroke="#880000" fill="none" stroke-width="1" display="none"/><path d="M 525 352 L 522 355 L 525 358" fill="none" stroke="#880000" stroke-width="1" display="none"/></g><g locked=""><path d="M 535 345 h -10" fill="none" stroke="#880000" stroke-width="1"/><text x="521.3" y="349" font-family="Verdana" font-size="7pt" fill="#0000FF" text-anchor="end">PIN6</text><text x="525.5" y="344" font-family="Verdana" font-size="7pt" fill="#0000FF" text-anchor="start">6</text><circle cx="528" cy="345" r="3" stroke="#880000" fill="none" stroke-width="1" display="none"/><path d="M 525 342 L 522 345 L 525 348" fill="none" stroke="#880000" stroke-width="1" display="none"/></g><g locked=""><path d="M 485 295 v 10" fill="none" stroke="#880000" stroke-width="1"/><text x="487" y="308.70000000000005" font-family="Verdana" font-size="7pt" fill="#0000FF" text-anchor="end" transform="rotate(270,487,308.70000000000005)">PIN7</text><text x="484" y="304.5" font-family="Verdana" font-size="7pt" fill="#0000FF" text-anchor="start" transform="rotate(270,484,304.5)">7</text><circle cx="485" cy="302" r="3" stroke="#880000" fill="none" stroke-width="1" display="none"/><path d="M 482 305 L 485 308 L 488 305" fill="none" stroke="#880000" stroke-width="1" display="none"/></g><g locked=""><path d="M 475 295 v 10" fill="none" stroke="#880000" stroke-width="1"/><text x="477" y="308.70000000000005" font-family="Verdana" font-size="7pt" fill="#0000FF" text-anchor="end" transform="rotate(270,477,308.70000000000005)">PIN8</text><text x="474" y="304.5" font-family="Verdana" font-size="7pt" fill="#0000FF" text-anchor="start" transform="rotate(270,474,304.5)">8</text><circle cx="475" cy="302" r="3" stroke="#880000" fill="none" stroke-width="1" display="none"/><path d="M 472 305 L 475 308 L 478 305" fill="none" stroke="#880000" stroke-width="1" display="none"/></g></g></g></svg>