<svg xmlns="http://www.w3.org/2000/svg" xmlns:xlink="http://www.w3.org/1999/xlink" viewBox="390 300 90 90"><title>SIP</title>
<style type="text/css">
path, polyline, polygon {stroke-linejoin:round;}
path, polyline, polygon, line {stroke-linecap:round;}
rect, circle, ellipse, polyline, line, polygon, path {shape-rendering:crispEdges;}
</style>
<g><g puuid="" uuid=""><g display="none"><text x="427.2142639160156" y="296.99999141693115" font-family="Arial" font-size="7pt" fill="#000080" text-anchor="start">Symbol1</text></g><g display="none"><text x="427.92857110500336" y="287.8571424484253" font-family="Arial" font-size="7pt" fill="#000080" text-anchor="start">U6</text></g><rect locked="" x="400" y="300" rx="2" ry="2" width="80" height="90" stroke="#880000" stroke-width="1" fill="none"/><ellipse cx="405" cy="305" rx="1.5" ry="1.5" locked="" stroke="#880000" stroke-width="1" fill="#880000"/><g locked=""><path d="M 390 310 h 10" fill="none" stroke="#880000" stroke-width="1"/><text x="403.70000000000005" y="314" font-family="Verdana" font-size="7pt" fill="#0000FF" text-anchor="start">PIN1</text><text x="399.5" y="309" font-family="Verdana" font-size="7pt" fill="#0000FF" text-anchor="end">1</text><circle cx="397" cy="310" r="3" stroke="#880000" fill="none" stroke-width="1" display="none"/><path d="M 400 313 L 403 310 L 400 307" fill="none" stroke="#880000" stroke-width="1" display="none"/></g><g locked=""><path d="M 390 320 h 10" fill="none" stroke="#880000" stroke-width="1"/><text x="403.70000000000005" y="324" font-family="Verdana" font-size="7pt" fill="#0000FF" text-anchor="start">PIN2</text><text x="399.5" y="319" font-family="Verdana" font-size="7pt" fill="#0000FF" text-anchor="end">2</text><circle cx="397" cy="320" r="3" stroke="#880000" fill="none" stroke-width="1" display="none"/><path d="M 400 323 L 403 320 L 400 317" fill="none" stroke="#880000" stroke-width="1" display="none"/></g><g locked=""><path d="M 390 330 h 10" fill="none" stroke="#880000" stroke-width="1"/><text x="403.70000000000005" y="334" font-family="Verdana" font-size="7pt" fill="#0000FF" text-anchor="start">PIN3</text><text x="399.5" y="329" font-family="Verdana" font-size="7pt" fill="#0000FF" text-anchor="end">3</text><circle cx="397" cy="330" r="3" stroke="#880000" fill="none" stroke-width="1" display="none"/><path d="M 400 333 L 403 330 L 400 327" fill="none" stroke="#880000" stroke-width="1" display="none"/></g><g locked=""><path d="M 390 340 h 10" fill="none" stroke="#880000" stroke-width="1"/><text x="403.70000000000005" y="344" font-family="Verdana" font-size="7pt" fill="#0000FF" text-anchor="start">PIN4</text><text x="399.5" y="339" font-family="Verdana" font-size="7pt" fill="#0000FF" text-anchor="end">4</text><circle cx="397" cy="340" r="3" stroke="#880000" fill="none" stroke-width="1" display="none"/><path d="M 400 343 L 403 340 L 400 337" fill="none" stroke="#880000" stroke-width="1" display="none"/></g><g locked=""><path d="M 390 350 h 10" fill="none" stroke="#880000" stroke-width="1"/><text x="403.70000000000005" y="354" font-family="Verdana" font-size="7pt" fill="#0000FF" text-anchor="start">PIN5</text><text x="399.5" y="349" font-family="Verdana" font-size="7pt" fill="#0000FF" text-anchor="end">5</text><circle cx="397" cy="350" r="3" stroke="#880000" fill="none" stroke-width="1" display="none"/><path d="M 400 353 L 403 350 L 400 347" fill="none" stroke="#880000" stroke-width="1" display="none"/></g><g locked=""><path d="M 390 360 h 10" fill="none" stroke="#880000" stroke-width="1"/><text x="403.70000000000005" y="364" font-family="Verdana" font-size="7pt" fill="#0000FF" text-anchor="start">PIN6</text><text x="399.5" y="359" font-family="Verdana" font-size="7pt" fill="#0000FF" text-anchor="end">6</text><circle cx="397" cy="360" r="3" stroke="#880000" fill="none" stroke-width="1" display="none"/><path d="M 400 363 L 403 360 L 400 357" fill="none" stroke="#880000" stroke-width="1" display="none"/></g><g locked=""><path d="M 390 370 h 10" fill="none" stroke="#880000" stroke-width="1"/><text x="403.70000000000005" y="374" font-family="Verdana" font-size="7pt" fill="#0000FF" text-anchor="start">PIN7</text><text x="399.5" y="369" font-family="Verdana" font-size="7pt" fill="#0000FF" text-anchor="end">7</text><circle cx="397" cy="370" r="3" stroke="#880000" fill="none" stroke-width="1" display="none"/><path d="M 400 373 L 403 370 L 400 367" fill="none" stroke="#880000" stroke-width="1" display="none"/></g><g locked=""><path d="M 390 380 h 10" fill="none" stroke="#880000" stroke-width="1"/><text x="403.70000000000005" y="384" font-family="Verdana" font-size="7pt" fill="#0000FF" text-anchor="start">PIN8</text><text x="399.5" y="379" font-family="Verdana" font-size="7pt" fill="#0000FF" text-anchor="end">8</text><circle cx="397" cy="380" r="3" stroke="#880000" fill="none" stroke-width="1" display="none"/><path d="M 400 383 L 403 380 L 400 377" fill="none" stroke="#880000" stroke-width="1" display="none"/></g></g></g></svg>