<svg xmlns="http://www.w3.org/2000/svg" xmlns:xlink="http://www.w3.org/1999/xlink" width="610" height="371" viewBox="-40 -361 610 371"><title>teardrop-pad-retangle</title><style type="text/css">
path, polyline, polygon {stroke-linejoin:round;}
path, polyline, polygon, line {stroke-linecap:round;}
rect, circle, ellipse, polyline, line, polygon, path {shape-rendering:auto;}
</style>
<g><rect locked="0" x="10" y="-311" width="180" height="220" stroke="#999999" stroke-width="1" fill="#999999"/><rect locked="0" x="280" y="-240" width="60" height="80" stroke="none" stroke-width="1" fill="#FF0000"/><polyline points="190 -280 280 -240 280 -160 190 -120 190 -280" stroke="#000000" locked="0" stroke-width="1" stroke-dasharray="6,6" fill="#FF0000" stroke-linecap="round"/><ellipse cx="100" cy="-200" rx="60" ry="60" locked="0" stroke="#333333" stroke-width="1" fill="#333333"/><polyline points="190 -280 190 -120" stroke="#000000" locked="0" stroke-width="1" stroke-dasharray="6,6" fill="none" stroke-linecap="round"/><polyline points="190 -69.89 190 -49.89" stroke="#000000" locked="0" stroke-width="1" fill="none" stroke-linecap="round"/><polyline points="280 -69.89 280 -49.89" stroke="#000000" locked="0" stroke-width="1" fill="none" stroke-linecap="round"/><polyline points="480 -280 500 -280" stroke="#000000" locked="0" stroke-width="1" fill="none" stroke-linecap="round"/><polyline points="430 -120 520 -120" stroke="#000000" locked="0" stroke-width="1" fill="none" stroke-linecap="round"/><polyline points="370 -240 390 -240" stroke="#000000" locked="0" stroke-width="1" fill="none" stroke-linecap="round"/><polyline points="370 -160 390 -160" stroke="#000000" locked="0" stroke-width="1" fill="none" stroke-linecap="round"/><polyline points="490 -239 490 -279 485 -270" stroke="#000000" locked="0" stroke-width="1" fill="none" stroke-linecap="round"/><polyline points="490 -279 495 -270" stroke="#000000" locked="0" stroke-width="1" fill="none" stroke-linecap="round"/><polyline points="490 -120 490 -160" stroke="#000000" locked="0" stroke-width="1" fill="none" stroke-linecap="round"/><polyline points="490 -120 485 -130" stroke="#000000" locked="0" stroke-width="1" fill="none" stroke-linecap="round"/><polyline points="490 -120 495 -130" stroke="#000000" locked="0" stroke-width="1" fill="none" stroke-linecap="round"/><polyline points="380 -240 375 -230" stroke="#000000" locked="0" stroke-width="1" fill="none" stroke-linecap="round"/><polyline points="380 -240 385 -230" stroke="#000000" locked="0" stroke-width="1" fill="none" stroke-linecap="round"/><polyline points="380 -160 375 -170" stroke="#000000" locked="0" stroke-width="1" fill="none" stroke-linecap="round"/><polyline points="380 -160 385 -170" stroke="#000000" locked="0" stroke-width="1" fill="none" stroke-linecap="round"/><polyline points="190 -59.89 210 -59.89" stroke="#000000" locked="0" stroke-width="1" fill="none" stroke-linecap="round"/><polyline points="190 -59.89 200 -64.89" stroke="#000000" locked="0" stroke-width="1" fill="none" stroke-linecap="round"/><polyline points="190 -59.89 200 -54.89" stroke="#000000" locked="0" stroke-width="1" fill="none" stroke-linecap="round"/><polyline points="280 -59.89 255 -59.89" stroke="#000000" locked="0" stroke-width="1" fill="none" stroke-linecap="round"/><polyline points="280 -59.89 270 -64.89" stroke="#000000" locked="0" stroke-width="1" fill="none" stroke-linecap="round"/><polyline points="280 -59.89 270 -54.89" stroke="#000000" locked="0" stroke-width="1" fill="none" stroke-linecap="round"/><g locked="0"><text x="338" y="-189.1875" fill="#0000FF" font-family="Verdana" font-size="26pt" font-weight="bolder" font-style="" dominant-baseline="" text-anchor="start" type="comment">100%</text></g><g locked="0"><text x="472" y="-189.1875" fill="#0000FF" font-family="Verdana" font-size="26pt" font-weight="bolder" font-style="undefined" dominant-baseline="" text-anchor="start" type="comment">W</text></g><g locked="0"><text x="222" y="-47.1875" fill="#0000FF" font-family="Verdana" font-size="26pt" font-weight="bolder" font-style="undefined" dominant-baseline="" text-anchor="start" type="comment">H</text></g><polyline points="380 -220 380 -240" stroke="#000000" locked="0" stroke-width="1" fill="none" stroke-linecap="round"/><polyline points="380 -160 380 -180" stroke="#000000" locked="0" stroke-width="1" fill="none" stroke-linecap="round"/><polyline points="190 -280 480 -280" stroke="#000000" locked="0" stroke-width="1" fill="none" stroke-linecap="round"/><polyline points="370 -240 340 -240" stroke="#000000" locked="0" stroke-width="1" fill="none" stroke-linecap="round"/><polyline points="370 -160 340 -160" stroke="#000000" locked="0" stroke-width="1" fill="none" stroke-linecap="round"/><polyline points="430 -120 190 -120" stroke="#000000" locked="0" stroke-width="1" fill="none" stroke-linecap="round"/><polyline points="280 -160 280 -70" stroke="#000000" locked="0" stroke-width="1" fill="none" stroke-linecap="round"/><polyline points="190 -70 190 -120" stroke="#000000" locked="0" stroke-width="1" fill="none" stroke-linecap="round"/></g></svg>